<svg width="93" height="94" viewBox="0 0 93 94" fill="none" xmlns="http://www.w3.org/2000/svg">
<path d="M1.5196 40.4734C0.793075 19.5569 20.3497 1.90449 45.191 1.03339C70.0324 0.162285 90.7634 16.4429 91.48 37.3294C92.1567 56.5938 75.6058 73.0847 53.571 76.2487C51.8293 87.6832 57.2037 93 57.2037 93C53.5087 91.5116 50.153 89.2832 47.3403 86.4501C44.5277 83.6169 42.3167 80.2382 40.8418 76.5191C19.2051 74.5166 2.17647 59.4074 1.5196 40.4734Z" fill="white" stroke="#CBD5E1" stroke-width="1.14453" stroke-linecap="round" stroke-linejoin="round"/>
<path d="M35.0993 25.1033C41.2997 23.321 44.9622 27.2059 46.5944 29.6991C48.3261 27.276 52.1479 23.5313 58.2687 25.5538C64.9169 27.7566 67.0766 36.3676 61.2544 44.0873C57.0943 49.6344 50.4958 53.3591 47.1219 55.0012C46.7238 55.2014 46.3555 55.3616 46.057 55.5018L45.002 54.9611C41.6978 53.1889 35.2486 49.2138 31.3174 43.5066C25.8734 35.5765 28.3714 27.0457 35.0993 25.1033Z" fill="#008DFF"/>
</svg>
